<svg xmlns="http://www.w3.org/2000/svg" version="1.1" xmlns:xlink="http://www.w3.org/1999/xlink" xmlns:svgjs="http://svgjs.com/svgjs" width="512" height="512" x="0" y="0" viewBox="0 0 64 64" style="enable-background:new 0 0 512 512" xml:space="preserve"><g><linearGradient id="a" x1="32" x2="32" y1="63" y2="1" gradientUnits="userSpaceOnUse"><stop stop-opacity="1" stop-color="#0bb1d3" offset="0"></stop><stop stop-opacity="1" stop-color="#ff00d7" offset="0.7878085930996839"></stop><stop stop-opacity="1" stop-color="#ff00d7" offset="0.9074073528992758"></stop></linearGradient><path fill="url(#a)" d="M61 23.273a5.015 5.015 0 0 0-4.01-4.901l-3.54-.712a1.99 1.99 0 0 1-1.17-.917A5.008 5.008 0 0 0 53.576 15H54c1.654 0 3-1.346 3-3 0-.648-.211-1.244-.561-1.735.86-.775 1.403-1.764 1.527-2.789a4.83 4.83 0 0 0-1.89-4.418l-1.546-1.16A4.515 4.515 0 0 0 51.838 1h-.394c-.88 0-1.723.252-2.444.723A4.452 4.452 0 0 0 46.556 1h-.394a4.52 4.52 0 0 0-2.692.897l-1.546 1.16a4.831 4.831 0 0 0-1.889 4.419c.123 1.025.666 2.014 1.527 2.789A2.97 2.97 0 0 0 41 12c0 1.654 1.346 3 3 3h.424a5.005 5.005 0 0 0 1.297 1.744c-.252.436-.648.768-1.095.897l-3.617.73a4.982 4.982 0 0 0-2.445 1.271 13.881 13.881 0 0 0-5.565-1.592V1h-2v17.051a13.881 13.881 0 0 0-5.565 1.592 4.987 4.987 0 0 0-2.435-1.268V9c0-4.411-3.589-8-8-8S7 4.589 7 9v9.375a5.014 5.014 0 0 0-4 4.898V31H1v2h17.051c.049.688.141 1.363.286 2.02-.081-.003-.16-.02-.242-.02h-6.19A5.91 5.91 0 0 0 6 40.904c0 .938.273 1.848.789 2.628l.782.721A2.98 2.98 0 0 0 7 46c0 1.654 1.346 3 3 3h.424a5.005 5.005 0 0 0 1.297 1.744c-.252.436-.649.768-1.094.897l-3.617.73A5.017 5.017 0 0 0 3 57.272V63h24v-5.728a5.016 5.016 0 0 0-4.01-4.901l-3.539-.71a2 2 0 0 1-1.171-.918A5.008 5.008 0 0 0 19.576 49H20c1.654 0 3-1.346 3-3 0-.647-.211-1.243-.561-1.734l.604-.54.167-.193c.096-.146.183-.297.263-.453a13.908 13.908 0 0 0 7.526 2.87V63h2V45.949a13.9 13.9 0 0 0 7.03-2.499c-.01.183-.029.365-.029.55v1c0 .561-.217.801-.707 1.291-.545.545-1.293 1.292-1.293 2.705 0 1.415.747 2.162 1.292 2.708.399.398.609.641.676 1.016-1.765.792-2.968 2.557-2.968 4.552V63h24v-5.728c0-1.996-1.203-3.761-2.969-4.552.068-.375.278-.618.676-1.016.546-.546 1.293-1.293 1.293-2.708 0-1.413-.748-2.16-1.293-2.705-.49-.49-.707-.73-.707-1.291v-1c0-4.963-4.038-9-9-9a8.982 8.982 0 0 0-3.516.714c.241-.874.399-1.781.465-2.714H63v-2h-2zM46 13v-2c0-.486.349-.893.809-.982 1.38.643 2.905.982 4.427.982H52v2c0 1.654-1.346 3-3 3s-3-1.346-3-3zm8 0v-2c.551 0 1 .449 1 1s-.449 1-1 1zm-11-1c0-.551.449-1 1-1v2c-.551 0-1-.449-1-1zm1.78-3H44c-.257 0-.502.042-.74.103l-.354-.317c-.505-.452-.82-1.002-.886-1.55a2.823 2.823 0 0 1 1.104-2.579l1.546-1.16c.428-.32.957-.497 1.492-.497h.394c.656 0 1.275.253 1.743.713l.701.69.701-.69A2.47 2.47 0 0 1 51.444 3h.394c.535 0 1.064.177 1.492.497l1.547 1.161a2.821 2.821 0 0 1 1.103 2.579c-.066.547-.381 1.098-.886 1.55l-.354.316A2.963 2.963 0 0 0 54 9H51.236a8.509 8.509 0 0 1-3.789-.895L47.236 8H47c-.883 0-1.67.391-2.22 1zM49 18c.541 0 1.052-.108 1.541-.268.123.211.267.408.427.593A2 2 0 0 1 49 20c-.99 0-1.807-.724-1.966-1.668.16-.186.304-.385.427-.599.488.159.999.267 1.539.267zm-7.594 2.332 3.692-.749c.07-.02.134-.049.202-.073A4.004 4.004 0 0 0 49 22a3.997 3.997 0 0 0 3.698-2.497c.093.033.183.072.28.099l3.617.73A3.01 3.01 0 0 1 59 23.273V31H45.949c-.298-4.182-2.435-7.853-5.611-10.219a2.99 2.99 0 0 1 1.068-.449zM43.949 31H39.93a8.007 8.007 0 0 0-6.931-6.931V20.05c5.82.484 10.467 5.131 10.95 10.95zM32 34c-1.103 0-2-.897-2-2s.897-2 2-2 2 .897 2 2-.897 2-2 2zm-1-5.858A3.995 3.995 0 0 0 28.142 31H26.09A6.007 6.007 0 0 1 31 26.09zM28.142 33A3.995 3.995 0 0 0 31 35.858v2.052A6.007 6.007 0 0 1 26.09 33zM33 35.858A3.995 3.995 0 0 0 35.858 33h2.052A6.007 6.007 0 0 1 33 37.91zM35.858 31A3.995 3.995 0 0 0 33 28.142V26.09A6.007 6.007 0 0 1 37.91 31zM31 24.069A8.007 8.007 0 0 0 24.069 31H20.05c.483-5.819 5.13-10.466 10.949-10.949v4.018zM10 13c-.551 0-1-.449-1-1s.449-1 1-1zm0 2h.424a5.005 5.005 0 0 0 1.297 1.744c-.252.436-.649.768-1.095.897L9 17.97v-3.154c.314.112.648.184 1 .184zm8-2c0 1.654-1.346 3-3 3s-3-1.346-3-3v-2c0-.486.349-.893.809-.982 1.38.643 2.905.982 4.427.982H18zm-4.539 4.732c.488.16.999.268 1.539.268.541 0 1.052-.108 1.54-.268.123.211.267.408.427.593A1.998 1.998 0 0 1 15 20c-.99 0-1.807-.724-1.966-1.669.159-.186.303-.385.427-.599zm4.819-.989A5.008 5.008 0 0 0 19.576 15H20c.352 0 .686-.072 1-.184v3.156l-1.55-.312a1.99 1.99 0 0 1-1.17-.917zM20 11c.551 0 1 .449 1 1s-.449 1-1 1zm-5-8c3.309 0 6 2.691 6 6v.184A2.966 2.966 0 0 0 20 9H17.236a8.509 8.509 0 0 1-3.789-.895L13.236 8H13c-.883 0-1.67.391-2.22 1H10c-.352 0-.686.072-1 .184V9c0-3.309 2.691-6 6-6zM5 23.273a3.01 3.01 0 0 1 2.406-2.941l3.692-.749c.07-.02.134-.049.202-.073A4.004 4.004 0 0 0 15 22a3.997 3.997 0 0 0 3.698-2.497c.093.033.183.072.28.099l3.616.73a2.99 2.99 0 0 1 1.068.449c-3.176 2.367-5.313 6.038-5.611 10.219H5zM9 46c0-.552.449-1 1-1v2c-.551 0-1-.448-1-1zm9 1c0 1.654-1.346 3-3 3s-3-1.346-3-3v-2a1 1 0 0 1 .81-.981c1.38.642 2.904.981 4.426.981H18zm4.594 7.332A3.01 3.01 0 0 1 25 57.272V61H5v-3.728a3.008 3.008 0 0 1 2.406-2.94l3.694-.749c.069-.02.134-.049.201-.073A4 4 0 0 0 15 56a3.996 3.996 0 0 0 3.698-2.497c.093.034.183.072.28.1zm-5.627-2.007A1.997 1.997 0 0 1 15 54c-.99 0-1.808-.724-1.966-1.669.159-.186.304-.385.427-.599.487.16.998.268 1.539.268s1.052-.108 1.541-.268c.123.211.267.408.426.593zM17.236 43a8.522 8.522 0 0 1-3.789-.895L13.236 42H13c-.883 0-1.67.391-2.22 1H10c-.257 0-.502.042-.74.103l-.867-.775A2.765 2.765 0 0 1 8 40.904 3.908 3.908 0 0 1 11.905 37h6.19c.301 0 .596.046.886.114a14.025 14.025 0 0 0 2.904 4.539 2.775 2.775 0 0 1-.278.676l-.867.775A2.918 2.918 0 0 0 20 43h-1zM20 47v-2a1.001 1.001 0 0 1 0 2zm.051-14h4.019a8.007 8.007 0 0 0 6.931 6.931v4.019c-5.82-.484-10.467-5.131-10.95-10.95zM59 61H39v-3.728a3.008 3.008 0 0 1 2.406-2.94l3.694-.749c.069-.02.134-.049.201-.073A4 4 0 0 0 49 56a3.996 3.996 0 0 0 3.698-2.497c.093.034.183.072.28.1l3.616.729A3.01 3.01 0 0 1 59 57.272zm-7-14c0 1.654-1.346 3-3 3s-3-1.346-3-3v-2a1 1 0 0 1 .81-.981c1.38.642 2.904.981 4.426.981H52zm-3 5c.541 0 1.052-.108 1.541-.268.123.211.267.408.426.593A1.997 1.997 0 0 1 49 54c-.99 0-1.808-.724-1.966-1.669.159-.186.304-.385.427-.599.487.16.998.268 1.539.268zm0-15c3.86 0 7 3.141 7 7v1c0 1.413.748 2.16 1.293 2.705.49.49.707.73.707 1.291 0 .563-.217.804-.708 1.294-.43.431-.98.992-1.196 1.902l-2.646-.531a2 2 0 0 1-1.171-.918C53.326 49.826 54 48.496 54 47v-4h-2.764a8.522 8.522 0 0 1-3.789-.895L47.236 42H47c-1.654 0-3 1.346-3 3v2c0 1.497.675 2.827 1.721 3.744-.252.436-.649.768-1.094.897l-2.723.549c-.216-.909-.766-1.471-1.196-1.901-.491-.489-.708-.73-.708-1.293 0-.561.217-.801.707-1.291C41.252 47.16 42 46.413 42 45v-1c0-1.025.219-2.009.644-2.929a14.08 14.08 0 0 0 1.463-2.073A6.954 6.954 0 0 1 49 37zm-16 6.949V39.93a8.007 8.007 0 0 0 6.931-6.931h4.019c-.484 5.82-5.131 10.467-10.95 10.95z" data-original="url(#a)"></path></g></svg>