<svg id="Layer_1" data-name="Layer 1" xmlns="http://www.w3.org/2000/svg" viewBox="0 0 480 480.01"><defs><style>.cls-1{fill:#50c7f5;}</style></defs><g id="media-monitor-screen-Digital_Marketing" data-name="media-monitor-screen-Digital Marketing"><path class="cls-1" d="M472,120H456v-8h8a24,24,0,0,0,0-48h-8V24a7.76,7.76,0,0,0-3.28-6.4,7.92,7.92,0,0,0-7-1.28L342.8,48H288a8,8,0,0,0-8,8v8H264a8,8,0,0,0-8,8v32a8,8,0,0,0,8,8h16v8H232V48a8,8,0,0,0-8-8H64a8,8,0,0,0-8,8v72H40a24.07,24.07,0,0,0-24,24V400a24.07,24.07,0,0,0,24,24H224v24H176a8,8,0,0,0-8,8v32a8,8,0,0,0,8,8H336a8,8,0,0,0,8-8V456a8,8,0,0,0-8-8H288V424H472a24.07,24.07,0,0,0,24-24V144A24.07,24.07,0,0,0,472,120ZM456,80h8a8,8,0,0,1,0,16h-8ZM352,61.92,440,34.8V141.2l-88-27.12ZM296,64h40v48H296Zm22.8,64L313,168h-9V128ZM272,96V80h8V96ZM72,56H216V168H72ZM328,464v16H184V464Zm-88-16V424h32v24Zm240-48a8,8,0,0,1-8,8H40a8,8,0,0,1-8-8v-8H480Zm0-24H32V144a8,8,0,0,1,8-8H56v40a8,8,0,0,0,8,8H224a8,8,0,0,0,8-8V136h56v40a8,8,0,0,0,8,8h24a8,8,0,0,0,7.92-6.88L335,128h7.84l102.88,31.68A7.27,7.27,0,0,0,448,160a8.12,8.12,0,0,0,8-8V136h16a8,8,0,0,1,8,8Z" transform="translate(-16 -15.99)"/><path class="cls-1" d="M56,360H264a8,8,0,0,0,8-8V224a8,8,0,0,0-8-8H56a8,8,0,0,0-8,8V352A8,8,0,0,0,56,360Zm8-16V238.31l91.81,56.51a8,8,0,0,0,8.38,0L256,238.31V344ZM84.26,232H235.74L160,278.61Z" transform="translate(-16 -15.99)"/><path class="cls-1" d="M296,312h16v24a8,8,0,0,0,8,8H456a8,8,0,0,0,8-8V240a8,8,0,0,0-8-8h-8V208a8,8,0,0,0-8-8H296a8,8,0,0,0-8,8v96A8,8,0,0,0,296,312Zm152,16H328V248H448ZM304,216H432v16H320a8,8,0,0,0-8,8v56h-8Z" transform="translate(-16 -15.99)"/><path class="cls-1" d="M344,264h16v16H344Z" transform="translate(-16 -15.99)"/><path class="cls-1" d="M376,264h56v16H376Z" transform="translate(-16 -15.99)"/><path class="cls-1" d="M344,296h32v16H344Z" transform="translate(-16 -15.99)"/><path class="cls-1" d="M392,296h40v16H392Z" transform="translate(-16 -15.99)"/><path class="cls-1" d="M123.79,142.81a8,8,0,0,0,7.79.35l48-24a8,8,0,0,0,3.59-10.73,8.09,8.09,0,0,0-3.59-3.59l-48-24A8,8,0,0,0,120,88v48A8,8,0,0,0,123.79,142.81ZM136,100.94,158.11,112,136,123.06Z" transform="translate(-16 -15.99)"/></g></svg>