<svg xmlns="http://www.w3.org/2000/svg" version="1.1" xmlns:xlink="http://www.w3.org/1999/xlink" xmlns:svgjs="http://svgjs.com/svgjs" width="512" height="512" x="0" y="0" viewBox="0 0 512 512" style="enable-background:new 0 0 512 512" xml:space="preserve" class=""><g><linearGradient id="a" x1="256.001" x2="256.001" y1="-.031" y2="512.031" gradientUnits="userSpaceOnUse"><stop stop-opacity="1" stop-color="#ff00d7" offset="0"></stop><stop stop-opacity="1" stop-color="#50c7f5" offset="0.49"></stop><stop stop-opacity="1" stop-color="#50c7f5" offset="1"></stop></linearGradient><path fill="url(#a)" d="M321 512c-1 0-2 0-3-1l-95-46c-2-2-3-4-4-6 0-3 1-5 3-7l20-17 62-49c3-2 8-2 10 2l18 21c1 2 2 4 2 6v1c62-30 102-94 102-165 0-79-50-149-126-174l-13-4c-3-2-5-6-4-9l9-27c1-3 5-6 9-4l13 4c92 31 154 117 154 214 0 100-63 185-156 215l15 7c2 1 3 3 4 4 1 2 1 4 0 6l-13 25c-1 2-2 3-4 4h-3zm-36-117h-58c-4 0-8-3-8-7v-28c-4-1-8-3-11-5l-20 20c-2 1-4 2-5 2-3 0-4-1-5-2l-42-41c-3-3-3-8 0-10l20-20c-2-4-3-7-5-11h-28c-4 0-7-4-7-8v-58c0-4 3-7 7-7h28c2-4 3-8 5-12l-20-20c-3-3-3-7 0-10l42-41c2-3 7-3 10 0l20 19c4-2 8-3 11-5v-28c0-4 4-7 8-7h58c4 0 7 3 7 7v28c4 2 8 3 12 5l20-19c3-3 7-3 10 0l41 41c1 1 2 3 2 5s-1 4-2 5l-20 19c2 4 4 8 5 12h28c4 0 8 3 8 8v58c0 4-4 7-8 7h-28c-1 5-3 8-4 12l20 19c1 1 2 3 2 5s-1 4-2 5l-42 41c-1 2-3 2-5 2s-3 0-5-2l-20-20c-3 2-7 4-11 5v28c-1 5-4 8-8 8zm-51-14h44v-26c0-4 2-6 5-7 7-2 13-5 19-8 2-2 6-1 8 1l19 18 30-30-18-19c-2-2-3-6-1-8 3-6 5-12 8-19 1-3 3-5 7-5h26v-44h-26c-4 0-6-2-7-5-2-7-5-13-8-19-2-3-1-6 1-9l18-18-30-31-19 19c-2 2-6 3-8 1-7-3-13-6-19-8-3-1-5-4-5-7v-26h-44v26c0 3-2 6-5 7-6 2-12 4-19 8-3 2-6 1-8-1l-19-18-31 30 19 19c2 2 2 5 1 8-4 7-6 13-8 19-1 3-3 6-7 6h-26v43h26c4 0 6 2 7 5 2 7 5 14 8 19 1 3 1 6-2 8l-18 19 31 31 18-19c3-2 6-2 9-1 5 4 12 6 18 8 3 1 6 4 6 7zm22-50c-42 0-76-34-76-75s34-75 76-75c41 0 75 34 75 75s-34 75-75 75zm0-136c-33 0-61 27-61 61 0 33 27 60 61 60 33 0 60-27 60-60 0-34-27-61-60-61zm-52 285h-3l-13-5C96 445 34 359 34 261c0-99 63-185 156-215l-15-7c-2-1-3-3-4-4 0-2 0-4 1-6l12-25c2-4 6-5 10-3l83 40 12 6c2 2 3 4 3 6 1 3 0 5-3 6l-20 17-61 50c-2 1-4 2-6 2s-4-2-5-3l-17-22c-2-2-2-4-2-6-61 29-102 93-102 164 0 79 50 149 125 174l14 5c3 1 5 5 4 9l-9 26c0 2-2 3-3 4s-2 1-3 1zM188 29l26 12c3 2 5 5 4 8 0 3-2 5-5 6C116 77 48 162 48 261c0 91 58 172 145 201l6 2 4-13-6-2C116 422 61 347 61 262c0-92 62-171 150-193 4 0 7 1 9 4 1 3 0 7-2 9l-22 18 8 10 68-54-2-2-10-5-66-32zm52 428 12 6 66 32 6-12-27-13c-3-1-4-4-4-7 1-3 3-5 6-6 96-22 164-107 164-206 0-91-58-172-144-200l-7-3-4 13 6 2c82 26 136 102 136 187 0 91-61 170-150 193-3 0-6-1-8-4s-1-7 2-9l22-17-8-11z" data-original="url(#a)" class=""></path></g></svg>