<?xml version="1.0" encoding="iso-8859-1"?>
<!-- Generator: Adobe Illustrator 19.0.0, SVG Export Plug-In . SVG Version: 6.00 Build 0)  -->
<svg version="1.1" id="Layer_1" xmlns="http://www.w3.org/2000/svg" xmlns:xlink="http://www.w3.org/1999/xlink" x="0px" y="0px"
	 viewBox="0 0 512 512" style="enable-background:new 0 0 512 512;" xml:space="preserve">
<g>
	<g>
		<path d="M429.654,52.204h-85.263c-3.622-8.265-11.877-14.057-21.464-14.057h-17.78C300.458,16.104,280.548,0,255.999,0
			c-24.55,0-44.461,16.104-49.149,38.147h-17.779c-9.585,0-17.841,5.792-21.463,14.057H82.345
			c-20.495,0-37.168,16.496-37.168,36.774v386.247C45.176,495.503,61.85,512,82.345,512h347.31
			c20.495,0,37.169-16.497,37.169-36.775V88.978C466.824,68.7,450.149,52.204,429.654,52.204z M185.726,61.573
			c0-1.845,1.501-3.347,3.345-3.347h36.811V48.186c0-16.024,12.948-28.107,30.118-28.107c17.169,0,30.116,12.083,30.116,28.107
			v10.039h36.813c1.845,0,3.347,1.502,3.347,3.347v30.788H185.726V61.573z M346.353,112.439h60.235v333.686H105.412V112.439h60.235
			H346.353z M446.745,475.225c0,9.207-7.667,16.696-17.09,16.696H82.345c-9.424,0-17.09-7.49-17.09-16.696V88.978
			c0-9.206,7.666-16.695,17.09-16.695h83.302v20.078H95.373c-5.545,0-10.039,4.495-10.039,10.039v353.765
			c0,5.545,4.495,10.039,10.039,10.039h321.255c5.545,0,10.039-4.495,10.039-10.039V102.4c0-5.545-4.495-10.039-10.039-10.039
			h-70.275V72.282h83.302c9.423,0,17.09,7.489,17.09,16.695V475.225z"/>
	</g>
</g>
<g>
	<g>
		<path d="M256,34.133c-8.857,0-16.063,7.206-16.063,16.063c0,8.857,7.205,16.063,16.063,16.063c8.857,0,16.063-7.206,16.063-16.063
			C272.063,41.339,264.857,34.133,256,34.133z M256,54.212c-2.215,0-4.016-1.801-4.016-4.016c0-2.215,1.801-4.016,4.016-4.016
			c2.215,0,4.016,1.801,4.016,4.016C260.016,52.411,258.215,54.212,256,54.212z"/>
	</g>
</g>
<g>
	<g>
		<path d="M184.722,349.365h-22.086c-5.545,0-10.039,4.495-10.039,10.039s4.495,10.039,10.039,10.039h22.086
			c5.545,0,10.039-4.495,10.039-10.039S190.266,349.365,184.722,349.365z"/>
	</g>
</g>
<g>
	<g>
		<path d="M349.365,349.365H216.847c-5.545,0-10.039,4.495-10.039,10.039s4.495,10.039,10.039,10.039h132.518
			c5.545,0,10.039-4.495,10.039-10.039S354.909,349.365,349.365,349.365z"/>
	</g>
</g>
<g>
	<g>
		<path d="M184.722,397.553h-22.086c-5.545,0-10.039,4.495-10.039,10.039s4.495,10.039,10.039,10.039h22.086
			c5.545,0,10.039-4.495,10.039-10.039S190.266,397.553,184.722,397.553z"/>
	</g>
</g>
<g>
	<g>
		<path d="M349.365,397.553H216.847c-5.545,0-10.039,4.495-10.039,10.039s4.495,10.039,10.039,10.039h132.518
			c5.545,0,10.039-4.495,10.039-10.039S354.909,397.553,349.365,397.553z"/>
	</g>
</g>
<g>
	<g>
		<path d="M256,144.738c-46.5,0-84.329,37.83-84.329,84.329S209.5,313.397,256,313.397s84.329-37.83,84.329-84.329
			S302.5,144.738,256,144.738z M256,293.319c-35.428,0-64.251-28.823-64.251-64.251c0-35.427,28.823-64.251,64.251-64.251
			c35.428,0,64.251,28.823,64.251,64.251S291.428,293.319,256,293.319z"/>
	</g>
</g>
<g>
	<g>
		<path d="M300.491,200.826c-3.92-3.92-10.277-3.92-14.197,0.001L245.54,241.58l-10.084-10.084c-3.92-3.92-10.277-3.92-14.198,0
			c-3.92,3.92-3.92,10.277,0,14.198l17.184,17.183c1.715,1.716,3.897,2.679,6.137,2.894c0.32,0.031,0.641,0.046,0.962,0.046
			c0.321,0,0.643-0.015,0.962-0.046c2.24-0.214,4.421-1.179,6.137-2.894c0.002-0.001,0.003-0.003,0.005-0.005l47.847-47.849
			C304.411,211.103,304.411,204.746,300.491,200.826z"/>
	</g>
</g>
<g>
</g>
<g>
</g>
<g>
</g>
<g>
</g>
<g>
</g>
<g>
</g>
<g>
</g>
<g>
</g>
<g>
</g>
<g>
</g>
<g>
</g>
<g>
</g>
<g>
</g>
<g>
</g>
<g>
</g>
</svg>
