<svg xmlns="http://www.w3.org/2000/svg" version="1.1" xmlns:xlink="http://www.w3.org/1999/xlink" xmlns:svgjs="http://svgjs.com/svgjs" width="512" height="512" x="0" y="0" viewBox="0 0 682.667 682.667" style="enable-background:new 0 0 512 512" xml:space="preserve" class=""><g><defs><clipPath id="a" clipPathUnits="userSpaceOnUse"><path d="M0 512h512V0H0Z" fill="#50c7f5" data-original="#000000" class=""></path></clipPath></defs><path d="M0 0h199.333" style="stroke-width:15;stroke-linecap:round;stroke-linejoin:round;stroke-miterlimit:10;stroke-dasharray:none;stroke-opacity:1" transform="matrix(1.33333 0 0 -1.33333 72.766 114.027)" fill="none" stroke="#50c7f5" stroke-width="15" stroke-linecap="round" stroke-linejoin="round" stroke-miterlimit="10" stroke-dasharray="none" stroke-opacity="" data-original="#000000" class=""></path><g clip-path="url(#a)" transform="matrix(1.33333 0 0 -1.33333 0 682.667)"><path d="M0 0s-9.582 8.838-24.352 4.389c-13.562-4.086-16.93-22.642-7.713-29.87 5.291-4.151 13.253-7.563 23.984-11.356 24.018-8.49 15.139-42.36-9.292-42.523-9.533-.064-13.991.542-22.366 6.02" style="stroke-width:15;stroke-linecap:round;stroke-linejoin:round;stroke-miterlimit:10;stroke-dasharray:none;stroke-opacity:1" transform="translate(437.599 168.611)" fill="none" stroke="#50c7f5" stroke-width="15" stroke-linecap="round" stroke-linejoin="round" stroke-miterlimit="10" stroke-dasharray="none" stroke-opacity="" data-original="#000000" class=""></path><path d="M0 0v-108.798" style="stroke-width:15;stroke-linecap:round;stroke-linejoin:round;stroke-miterlimit:10;stroke-dasharray:none;stroke-opacity:1" transform="translate(420.763 185.685)" fill="none" stroke="#50c7f5" stroke-width="15" stroke-linecap="round" stroke-linejoin="round" stroke-miterlimit="10" stroke-dasharray="none" stroke-opacity="" data-original="#000000" class=""></path><path d="M0 0h-418.522c-9.896 0-17.918-8.022-17.918-17.918v-58.896H17.918v58.896C17.918-8.022 9.896 0 0 0Z" style="stroke-width:15;stroke-linecap:round;stroke-linejoin:round;stroke-miterlimit:10;stroke-dasharray:none;stroke-opacity:1" transform="translate(443.94 464.887)" fill="none" stroke="#50c7f5" stroke-width="15" stroke-linecap="round" stroke-linejoin="round" stroke-miterlimit="10" stroke-dasharray="none" stroke-opacity="" data-original="#000000" class=""></path><path d="M0 0c0-46.488-37.686-84.174-84.173-84.174S-168.346-46.488-168.346 0c0 46.487 37.686 84.173 84.173 84.173S0 46.487 0 0Z" style="stroke-width:15;stroke-linecap:round;stroke-linejoin:round;stroke-miterlimit:10;stroke-dasharray:none;stroke-opacity:1" transform="translate(504.5 131.287)" fill="none" stroke="#50c7f5" stroke-width="15" stroke-linecap="round" stroke-linejoin="round" stroke-miterlimit="10" stroke-dasharray="none" stroke-opacity="" data-original="#000000" class=""></path><path d="M0 0v-296.922c0-9.896 8.022-17.918 17.918-17.918h295.418" style="stroke-width:15;stroke-linecap:round;stroke-linejoin:round;stroke-miterlimit:10;stroke-dasharray:none;stroke-opacity:1" transform="translate(7.5 388.072)" fill="none" stroke="#50c7f5" stroke-width="15" stroke-linecap="round" stroke-linejoin="round" stroke-miterlimit="10" stroke-dasharray="none" stroke-opacity="" data-original="#000000" class=""></path><path d="M0 0v149.306" style="stroke-width:15;stroke-linecap:round;stroke-linejoin:round;stroke-miterlimit:10;stroke-dasharray:none;stroke-opacity:1" transform="translate(461.858 238.767)" fill="none" stroke="#50c7f5" stroke-width="15" stroke-linecap="round" stroke-linejoin="round" stroke-miterlimit="10" stroke-dasharray="none" stroke-opacity="" data-original="#000000" class=""></path><path d="M0 0c0-7.47-6.056-13.524-13.524-13.524-7.47 0-13.525 6.054-13.525 13.524 0 7.469 6.055 13.524 13.525 13.524C-6.056 13.524 0 7.469 0 0Z" style="stroke-width:15;stroke-linecap:round;stroke-linejoin:round;stroke-miterlimit:10;stroke-dasharray:none;stroke-opacity:1" transform="translate(357.297 426.48)" fill="none" stroke="#50c7f5" stroke-width="15" stroke-linecap="round" stroke-linejoin="round" stroke-miterlimit="10" stroke-dasharray="none" stroke-opacity="" data-original="#000000" class=""></path><path d="M0 0c0-7.47-6.055-13.524-13.524-13.524-7.469 0-13.525 6.054-13.525 13.524 0 7.469 6.056 13.524 13.525 13.524S0 7.469 0 0Z" style="stroke-width:15;stroke-linecap:round;stroke-linejoin:round;stroke-miterlimit:10;stroke-dasharray:none;stroke-opacity:1" transform="translate(413.455 426.48)" fill="none" stroke="#50c7f5" stroke-width="15" stroke-linecap="round" stroke-linejoin="round" stroke-miterlimit="10" stroke-dasharray="none" stroke-opacity="" data-original="#000000" class=""></path><path d="m0 0-.007 87.101" style="stroke-width:15;stroke-linecap:round;stroke-linejoin:round;stroke-miterlimit:10;stroke-dasharray:none;stroke-opacity:1" transform="translate(165.665 204.337)" fill="none" stroke="#50c7f5" stroke-width="15" stroke-linecap="round" stroke-linejoin="round" stroke-miterlimit="10" stroke-dasharray="none" stroke-opacity="" data-original="#000000" class=""></path><path d="M0 0v0c9.144.001 16.556 7.414 16.555 16.558l-.016 171.067c0 9.144-7.413 16.556-16.557 16.555-9.144-.001-16.555-7.414-16.555-16.558l.015-171.067C-16.557 7.411-9.144 0 0 0Z" style="stroke-width:15;stroke-linecap:round;stroke-linejoin:round;stroke-miterlimit:10;stroke-dasharray:none;stroke-opacity:1" transform="translate(287.187 145.808)" fill="none" stroke="#50c7f5" stroke-width="15" stroke-linecap="round" stroke-linejoin="round" stroke-miterlimit="10" stroke-dasharray="none" stroke-opacity="" data-original="#000000" class=""></path><path d="m0 0-8.09-.001c-16.005-.001-28.977-12.977-28.976-28.981.001-16.004 12.976-28.978 28.981-28.976H.038c-.011.227-.034.449-.034.678" style="stroke-width:15;stroke-linecap:round;stroke-linejoin:round;stroke-miterlimit:10;stroke-dasharray:none;stroke-opacity:1" transform="translate(84.849 275.437)" fill="none" stroke="#50c7f5" stroke-width="15" stroke-linecap="round" stroke-linejoin="round" stroke-miterlimit="10" stroke-dasharray="none" stroke-opacity="" data-original="#000000" class=""></path><path d="M0 0c-23.348-24.837-57.389-35.198-93.893-35.201l-78.048-.006c-7.636-.001-13.826-6.191-13.826-13.827l.005-59.448c.001-7.636 6.192-13.826 13.828-13.826l78.048.007c36.504.003 70.548-10.352 93.9-35.186" style="stroke-width:15;stroke-linecap:round;stroke-linejoin:round;stroke-miterlimit:10;stroke-dasharray:none;stroke-opacity:1" transform="translate(270.614 326.639)" fill="none" stroke="#50c7f5" stroke-width="15" stroke-linecap="round" stroke-linejoin="round" stroke-miterlimit="10" stroke-dasharray="none" stroke-opacity="" data-original="#000000" class=""></path><path d="M0 0v-61.461c0-5.869 4.758-10.626 10.626-10.626h14.752c4.977 0 9.288 3.455 10.371 8.313L49.973.004" style="stroke-width:15;stroke-linecap:round;stroke-linejoin:round;stroke-miterlimit:10;stroke-dasharray:none;stroke-opacity:1" transform="translate(104.665 204.332)" fill="none" stroke="#50c7f5" stroke-width="15" stroke-linecap="round" stroke-linejoin="round" stroke-miterlimit="10" stroke-dasharray="none" stroke-opacity="" data-original="#000000" class=""></path></g></g></svg>