<svg id="Layer_1" data-name="Layer 1" xmlns="http://www.w3.org/2000/svg" xmlns:xlink="http://www.w3.org/1999/xlink" viewBox="0 0 421.65 512"><defs><style>.cls-1{fill:url(#linear-gradient);}.cls-2{fill:url(#linear-gradient-2);}.cls-3{fill:url(#linear-gradient-3);}.cls-4{fill:url(#linear-gradient-4);}.cls-5{fill:url(#linear-gradient-5);}.cls-6{fill:url(#linear-gradient-6);}.cls-7{fill:url(#linear-gradient-7);}.cls-8{fill:url(#linear-gradient-8);}</style><linearGradient id="linear-gradient" x1="250.65" y1="9.05" x2="262.65" y2="621.05" gradientUnits="userSpaceOnUse"><stop offset="0" stop-color="#ff00d7"/><stop offset="0.47" stop-color="#69f"/></linearGradient><linearGradient id="linear-gradient-2" x1="255.19" y1="8.96" x2="267.19" y2="620.96" gradientUnits="userSpaceOnUse"><stop offset="0" stop-color="#ff00d7"/><stop offset="0.47" stop-color="#69f"/><stop offset="1" stop-color="#50c7f5"/></linearGradient><linearGradient id="linear-gradient-3" x1="166.84" y1="10.69" x2="178.84" y2="622.69" xlink:href="#linear-gradient-2"/><linearGradient id="linear-gradient-4" x1="276.23" y1="8.54" x2="288.23" y2="620.54" xlink:href="#linear-gradient-2"/><linearGradient id="linear-gradient-5" x1="165.9" y1="10.71" x2="177.9" y2="622.71" xlink:href="#linear-gradient-2"/><linearGradient id="linear-gradient-6" x1="275.28" y1="8.56" x2="287.28" y2="620.56" xlink:href="#linear-gradient-2"/><linearGradient id="linear-gradient-7" x1="251.69" y1="9.03" x2="263.69" y2="621.03" xlink:href="#linear-gradient-2"/><linearGradient id="linear-gradient-8" x1="256.67" y1="8.93" x2="268.67" y2="620.93" xlink:href="#linear-gradient-2"/></defs><path class="cls-1" d="M429.65,52.2H344.39a23.46,23.46,0,0,0-21.46-14.05H305.15C300.46,16.1,280.55,0,256,0s-44.46,16.1-49.15,38.15H189.07A23.46,23.46,0,0,0,167.61,52.2H82.35A37,37,0,0,0,45.18,89V475.23A37,37,0,0,0,82.35,512h347.3a37,37,0,0,0,37.17-36.77V89A37,37,0,0,0,429.65,52.2ZM185.73,61.57a3.35,3.35,0,0,1,3.34-3.34h36.81v-10c0-16,13-28.11,30.12-28.11s30.12,12.08,30.12,28.11v10h36.81a3.36,3.36,0,0,1,3.35,3.35V92.36H185.73Zm160.62,50.87h60.24V446.12H105.41V112.44H346.35ZM446.74,475.23a16.91,16.91,0,0,1-17.09,16.69H82.35a16.91,16.91,0,0,1-17.09-16.69V89a16.91,16.91,0,0,1,17.09-16.7h83.3V92.36H95.37a10,10,0,0,0-10,10V456.17a10,10,0,0,0,10,10H416.63a10,10,0,0,0,10-10V102.4a10,10,0,0,0-10-10H346.35V72.28h83.3A16.91,16.91,0,0,1,446.74,89Z" transform="translate(-45.18)"/><path class="cls-2" d="M256,34.13A16.07,16.07,0,1,0,272.06,50.2,16.08,16.08,0,0,0,256,34.13Zm0,20.08a4,4,0,1,1,4-4A4,4,0,0,1,256,54.21Z" transform="translate(-45.18)"/><path class="cls-3" d="M184.72,349.36H162.64a10,10,0,0,0,0,20.08h22.08a10,10,0,1,0,0-20.08Z" transform="translate(-45.18)"/><path class="cls-4" d="M349.36,349.36H216.85a10,10,0,1,0,0,20.08H349.36a10,10,0,0,0,0-20.08Z" transform="translate(-45.18)"/><path class="cls-5" d="M184.72,397.55H162.64a10,10,0,0,0,0,20.08h22.08a10,10,0,0,0,0-20.08Z" transform="translate(-45.18)"/><path class="cls-6" d="M349.36,397.55H216.85a10,10,0,0,0,0,20.08H349.36a10,10,0,1,0,0-20.08Z" transform="translate(-45.18)"/><path class="cls-7" d="M256,144.74a84.33,84.33,0,1,0,84.33,84.33A84.43,84.43,0,0,0,256,144.74Zm0,148.58a64.25,64.25,0,1,1,64.25-64.25A64.32,64.32,0,0,1,256,293.32Z" transform="translate(-45.18)"/><path class="cls-8" d="M300.49,200.83a10,10,0,0,0-14.2,0l-40.75,40.75L235.46,231.5a10,10,0,0,0-14.2,14.19l17.18,17.19a10,10,0,0,0,6.14,2.89c.32,0,.64.05,1,.05s.64,0,1-.05a10,10,0,0,0,6.14-2.89h0L300.49,215A10,10,0,0,0,300.49,200.83Z" transform="translate(-45.18)"/></svg>