<svg xmlns="http://www.w3.org/2000/svg" version="1.1" xmlns:xlink="http://www.w3.org/1999/xlink" xmlns:svgjs="http://svgjs.com/svgjs" width="512" height="512" x="0" y="0" viewBox="0 0 64 64" style="enable-background:new 0 0 512 512" xml:space="preserve" class=""><g><path d="M58 49H34.9a3.006 3.006 0 0 0-.618-1.212l-5.523-6.438A1 1 0 0 0 28 41H17v-1a1 1 0 0 0-1-1H2a1 1 0 0 0-1 1v22a1 1 0 0 0 1 1h8a1 1 0 0 0 1-1v-1h5a1 1 0 0 0 1-1v-1h6.7l5.748 3.832A1 1 0 0 0 30 63a1.038 1.038 0 0 0 .214-.023l32-7A1 1 0 0 0 63 55v-1a5.006 5.006 0 0 0-5-5ZM9 61H3V41h6v20Zm6-2h-4V41h4Zm46-4.8-30.8 6.733-5.646-3.765A1.006 1.006 0 0 0 24 57h-7V43h10.54l5.219 6.089a1 1 0 0 1 .241.651V51a1 1 0 0 1-1 1h-1.171a1 1 0 0 1-.708-.293l-4.414-4.414-1.414 1.414 4.414 4.414a2.978 2.978 0 0 0 2.122.879H32a3 3 0 0 0 3-3h23a3 3 0 0 1 3 3ZM62 31h-2V9a3 3 0 0 0-3-3h-7.054a.792.792 0 0 0-.047-.071L47.071 3.1a1 1 0 0 0-1.414 0l-1.038 1.038A9.941 9.941 0 0 0 43 3.466V2a1 1 0 0 0-1-1h-4a1 1 0 0 0-1 1v1.466a9.941 9.941 0 0 0-1.619.672L34.343 3.1a1 1 0 0 0-1.414 0L30.1 5.929a.792.792 0 0 0-.046.071H23a3 3 0 0 0-3 3v6H2a1 1 0 0 0-1 1v12a1 1 0 0 0 1 1h18v2h-2a1 1 0 0 0-1 1v4a3 3 0 0 0 3 3h40a3 3 0 0 0 3-3v-4a1 1 0 0 0-1-1ZM58 9v22h-2V11a1 1 0 0 0-1-1h-5.466a9.941 9.941 0 0 0-.672-1.619L49.243 8H57a1 1 0 0 1 1 1ZM27 28V16a1 1 0 0 0-1-1v-3h2v3a1 1 0 0 0 1 1h1.466a9.941 9.941 0 0 0 .672 1.619L30.1 18.657a1 1 0 0 0 0 1.414l2.829 2.829a1 1 0 0 0 1.414 0l1.038-1.038a9.931 9.931 0 0 0 1.619.672V24a1 1 0 0 0 1 1h4a1 1 0 0 0 1-1v-1.466a9.931 9.931 0 0 0 1.619-.673l1.038 1.039a1 1 0 0 0 1.414 0l2.829-2.829a1 1 0 0 0 0-1.414l-1.037-1.038A9.941 9.941 0 0 0 49.534 16H51a1 1 0 0 0 1-1v-3h2v19H26v-2a1 1 0 0 0 1-1Zm5.206-16.778a7.917 7.917 0 0 1 1.027-2.473 1 1 0 0 0-.139-1.241l-.872-.872 1.414-1.414.872.872a1 1 0 0 0 1.241.139 7.917 7.917 0 0 1 2.473-1.027A1 1 0 0 0 39 4.23V3h2v1.23a1 1 0 0 0 .778.976 7.917 7.917 0 0 1 2.473 1.027 1 1 0 0 0 1.241-.139l.872-.872 1.414 1.414-.872.872a1 1 0 0 0-.139 1.241 7.917 7.917 0 0 1 1.027 2.473 1 1 0 0 0 .976.778H50v2h-1.23a1 1 0 0 0-.976.778 7.917 7.917 0 0 1-1.027 2.473 1 1 0 0 0 .139 1.241l.872.872-1.414 1.414-.872-.872a1 1 0 0 0-1.24-.139 7.933 7.933 0 0 1-2.473 1.027 1 1 0 0 0-.779.975V23h-2v-1.231a1 1 0 0 0-.779-.975 7.933 7.933 0 0 1-2.473-1.027 1 1 0 0 0-1.24.139l-.872.872-1.414-1.414.872-.872a1 1 0 0 0 .139-1.241 7.917 7.917 0 0 1-1.027-2.473A1 1 0 0 0 31.23 14H30v-2h1.23a1 1 0 0 0 .976-.778ZM22 9a1 1 0 0 1 1-1h7.757l.381.381A9.941 9.941 0 0 0 30.466 10H25a1 1 0 0 0-1 1v4h-2ZM3 17h22v10H3Zm19 12h2v2h-2Zm39 7a1 1 0 0 1-1 1H20a1 1 0 0 1-1-1v-3h42Z" fill="#0ec5d2" data-original="#000000" class=""></path><path d="M40 19a6 6 0 1 0-6-6 6.006 6.006 0 0 0 6 6Zm0-10a4 4 0 1 1-4 4 4 4 0 0 1 4-4ZM8.293 18.293l-3 3a1 1 0 0 0 0 1.414l3 3 1.414-1.414L7.414 22l2.293-2.293ZM19.707 18.293l-1.414 1.414L20.586 22l-2.293 2.293 1.414 1.414 3-3a1 1 0 0 0 0-1.414ZM11.106 25.552l4-8 1.789.895-4 8z" fill="#0ec5d2" data-original="#000000" class=""></path></g></svg>