<svg xmlns="http://www.w3.org/2000/svg" version="1.1" xmlns:xlink="http://www.w3.org/1999/xlink" xmlns:svgjs="http://svgjs.com/svgjs" width="512" height="512" x="0" y="0" viewBox="0 0 512 512" style="enable-background:new 0 0 512 512" xml:space="preserve" class=""><g><linearGradient id="a" x1="256" x2="256" y1="472" y2="40" gradientUnits="userSpaceOnUse"><stop stop-opacity="1" stop-color="#12bee5" offset="0"></stop><stop stop-opacity="1" stop-color="#c071e9" offset="0.5"></stop><stop stop-opacity="1" stop-color="#ff00d7" offset="1"></stop></linearGradient><path fill="url(#a)" d="m311.845 230.431-7.299-36.493L326.4 164.8a7.997 7.997 0 0 0 1.072-7.655 7.998 7.998 0 0 0-5.903-4.99l-37.003-7.4L262.4 115.2a7.999 7.999 0 0 0-12.8 0l-22.166 29.555-37.003 7.4A8 8 0 0 0 185.6 164.8l21.855 29.139-7.299 36.493a8 8 0 0 0 10.375 9.158L256 224.433l45.47 15.157a7.995 7.995 0 0 0 7.824-1.591 8.003 8.003 0 0 0 2.551-7.568zM289.6 187.2a8 8 0 0 0-1.444 6.369l5.297 26.482-34.922-11.641a7.993 7.993 0 0 0-5.06 0l-34.922 11.641 5.297-26.482a8.004 8.004 0 0 0-1.444-6.369l-16.384-21.845 27.553-5.51a8.002 8.002 0 0 0 4.831-3.045l17.6-23.466 17.6 23.466a8.002 8.002 0 0 0 4.831 3.045l27.553 5.51zM496 144c0-13.233-10.767-24-24-24h-90.28c1.427-14.67 1.962-26.44 2.161-33.336C393.254 83.395 400 74.473 400 64c0-13.233-10.767-24-24-24H136c-13.233 0-24 10.767-24 24 0 10.473 6.746 19.395 16.119 22.664.199 6.896.734 18.666 2.161 33.336H40c-13.233 0-24 10.767-24 24 0 11.05 7.507 20.379 17.688 23.158A23.867 23.867 0 0 0 32 176c0 11.05 7.507 20.379 17.688 23.158A23.867 23.867 0 0 0 48 208c0 11.826 8.598 21.681 19.87 23.645l23.451 29.314C117.271 293.396 155.98 312 197.52 312H208v24a8 8 0 0 0 8 8h8v8c0 13.234-10.767 24-24 24-19.317 0-35.479 13.764-39.195 32H136a8 8 0 0 0-8 8v48a8 8 0 0 0 8 8h240a8 8 0 0 0 8-8v-48a8 8 0 0 0-8-8h-24.805c-3.717-18.236-19.878-32-39.195-32-13.233 0-24-10.766-24-24v-8h8a8 8 0 0 0 8-8v-24h10.48c41.54 0 80.248-18.604 106.198-51.042l23.451-29.314C455.402 229.681 464 219.826 464 208c0-3.121-.599-6.105-1.688-8.842C472.493 196.379 480 187.05 480 176c0-3.121-.599-6.105-1.688-8.842C488.493 164.379 496 155.05 496 144zM256 296c-98.319 0-110.341-168.899-111.8-208h223.603C366.36 127.098 354.402 296 256 296zM136 56h240c4.411 0 8 3.589 8 8s-3.589 8-8 8H136c-4.411 0-8-3.589-8-8s3.589-8 8-8zm-32.185 194.963L88.645 232H120c4.418 0 8-3.581 8-8s-3.582-8-8-8H72c-4.411 0-8-3.589-8-8s3.589-8 8-8h32c4.418 0 8-3.581 8-8s-3.582-8-8-8H56c-4.411 0-8-3.589-8-8s3.589-8 8-8h32c4.418 0 8-3.581 8-8s-3.582-8-8-8H40c-4.411 0-8-3.589-8-8s3.589-8 8-8h92.08c2.255 17.608 5.757 37.774 11.193 58.07 13.143 49.07 33.699 83.421 60.577 101.93h-6.33c-36.654 0-70.807-16.415-93.705-45.037zM368 456H144v-32h224zm-56-64c10.429 0 19.321 6.689 22.624 16H177.376c3.302-9.311 12.195-16 22.624-16 22.056 0 40-17.944 40-40v-8h32v8c0 22.056 17.944 40 40 40zm-88-64v-21.53c9.999 3.668 20.677 5.53 32 5.53s22.001-1.862 32-5.53V328zm248-176h-48c-4.418 0-8 3.581-8 8s3.582 8 8 8h32c4.411 0 8 3.589 8 8s-3.589 8-8 8h-48c-4.418 0-8 3.581-8 8s3.582 8 8 8h32c4.411 0 8 3.589 8 8s-3.589 8-8 8h-48c-4.418 0-8 3.581-8 8s3.582 8 8 8h31.355l-15.17 18.963C385.287 279.585 351.134 296 314.48 296h-6.33c26.878-18.509 47.433-52.86 60.577-101.93 5.436-20.296 8.938-40.462 11.193-58.07H472c4.411 0 8 3.589 8 8s-3.589 8-8 8z" data-original="url(#a)"></path></g></svg>