<svg id="svg1710" xmlns="http://www.w3.org/2000/svg" xmlns:xlink="http://www.w3.org/1999/xlink" viewBox="0 0 683.67 683.67"><defs><style>.cls-1{fill:#fff;}.cls-2,.cls-5,.cls-6{fill:none;}.cls-2,.cls-5,.cls-6,.cls-7{stroke:#ff00d7;}.cls-2,.cls-7{stroke-miterlimit:10;}.cls-3{mask:url(#mask);}.cls-4{clip-path:url(#clip-path);}.cls-5,.cls-6{stroke-linejoin:round;stroke-width:53.33px;}.cls-6{stroke-linecap:round;}.cls-7{fill:#ff00d7;}</style><mask id="mask" x="0" y="0" width="683.67" height="683.67" maskUnits="userSpaceOnUse"><g transform="translate(0.5 0.5)"><g id="custom"><rect id="bg" class="cls-1" width="682.67" height="682.67"/><path id="path1744" class="cls-1" d="M126.67,629.33A53.33,53.33,0,1,1,180,682.67a53.33,53.33,0,0,1-53.33-53.34"/></g></g></mask><clipPath id="clip-path" transform="translate(0.5 0.5)"><rect class="cls-2" width="682.67" height="682.67"/></clipPath></defs><g class="cls-3"><g id="g1716"><g id="g1718"><g class="cls-4"><g id="g1720"><g id="g1726"><path id="path1728" class="cls-5" d="M314.15,348.54l114.48-66.43a25.59,25.59,0,0,0,0-44.22L314.15,171.46C297.2,161.63,276,173.91,276,193.58V326.42C276,346.09,297.2,358.37,314.15,348.54Z" transform="translate(0.5 0.5)"/></g><g id="g1730"><path id="path1732" class="cls-6" d="M656,413.33a80,80,0,0,1-80,80H106.67a80,80,0,0,1-80-80V106.67a80,80,0,0,1,80-80H576a80,80,0,0,1,80,80l.09,301.78" transform="translate(0.5 0.5)"/></g><g id="g1734"><path id="path1736" class="cls-6" d="M180,628H26.67" transform="translate(0.5 0.5)"/></g><g id="g1738"><path id="path1740" class="cls-6" d="M656,628H313.33" transform="translate(0.5 0.5)"/></g><g id="g1742"><path id="path1744-2" data-name="path1744" class="cls-7" d="M133.29,628a53.34,53.34,0,1,1,53.33,53.33A53.33,53.33,0,0,1,133.29,628" transform="translate(0.5 0.5)"/></g></g></g><rect class="cls-2" x="0.5" y="0.5" width="682.67" height="682.67"/></g></g></g></svg>