<svg xmlns="http://www.w3.org/2000/svg" version="1.1" xmlns:xlink="http://www.w3.org/1999/xlink" xmlns:svgjs="http://svgjs.com/svgjs" width="512" height="512" x="0" y="0" viewBox="0 0 682.667 682.667" style="enable-background:new 0 0 512 512" xml:space="preserve" class=""><g><defs><clipPath id="b" clipPathUnits="userSpaceOnUse"><path d="M0 512h512V0H0Z" fill="#0ec5d2" data-original="#000000" class=""></path></clipPath></defs><mask id="a"><rect width="100%" height="100%" fill="#ffffff" data-original="#ffffff" class=""></rect><path d="M0 0c0 22.092 17.908 40 40 40S80 22.092 80 0 62.092-40 40-40 0-22.092 0 0" style="fill-opacity:1;fill-rule:nonzero;stroke:none" transform="matrix(1.33333 0 0 -1.33333 126.667 629.333)" fill="#ffffff" data-original="#ffffff" class=""></path></mask><g mask="url(#a)"><g clip-path="url(#b)" transform="matrix(1.33333 0 0 -1.33333 0 682.667)"><path d="m0 0 85.854 49.819c12.707 7.373 12.707 25.792 0 33.165L0 132.803c-12.716 7.379-28.616-1.836-28.616-16.583V16.583C-28.616 1.836-12.716-7.379 0 0Z" style="stroke-width:40;stroke-linecap:butt;stroke-linejoin:round;stroke-miterlimit:10;stroke-dasharray:none;stroke-opacity:1" transform="translate(235.616 250.599)" fill="none" stroke="#0ec5d2" stroke-width="40" stroke-linecap="butt" stroke-linejoin="round" stroke-miterlimit="10" stroke-dasharray="none" stroke-opacity="" data-original="#000000" class=""></path><path d="M0 0c0-33.137-26.863-60-60-60h-352c-33.137 0-60 26.863-60 60v230c0 33.137 26.863 60 60 60h352c33.137 0 60-26.863 60-60V101" style="stroke-width:40;stroke-linecap:round;stroke-linejoin:round;stroke-miterlimit:10;stroke-dasharray:none;stroke-opacity:1" transform="translate(492 202)" fill="none" stroke="#0ec5d2" stroke-width="40" stroke-linecap="round" stroke-linejoin="round" stroke-miterlimit="10" stroke-dasharray="none" stroke-opacity="" data-original="#000000" class=""></path><path d="M0 0h-115" style="stroke-width:40;stroke-linecap:round;stroke-linejoin:round;stroke-miterlimit:10;stroke-dasharray:none;stroke-opacity:1" transform="translate(135 41)" fill="none" stroke="#0ec5d2" stroke-width="40" stroke-linecap="round" stroke-linejoin="round" stroke-miterlimit="10" stroke-dasharray="none" stroke-opacity="" data-original="#000000" class=""></path><path d="M0 0h-257" style="stroke-width:40;stroke-linecap:round;stroke-linejoin:round;stroke-miterlimit:10;stroke-dasharray:none;stroke-opacity:1" transform="translate(492 41)" fill="none" stroke="#0ec5d2" stroke-width="40" stroke-linecap="round" stroke-linejoin="round" stroke-miterlimit="10" stroke-dasharray="none" stroke-opacity="" data-original="#000000" class=""></path><path d="M0 0c0 22.092 17.908 40 40 40S80 22.092 80 0 62.092-40 40-40 0-22.092 0 0" style="fill-opacity:1;fill-rule:nonzero;stroke:none" transform="translate(95 40)" fill="#0ec5d2" data-original="#000000" class=""></path></g></g></g></svg>